<svg t="1580224081120" class="icon" viewBox="0 0 1024 1024" version="1.1" xmlns="http://www.w3.org/2000/svg" p-id="3507" width="16" height="16"><path d="M446.875589 615.994287q-0.585059 1.682045-7.166976-0.29253t-17.990573-6.581917l-11.408656-5.119269q-25.157549-11.408656-49.730039-28.009713-4.022283-2.852164-23.402371-17.990573t-21.720326-16.308527q-38.24825 58.87159-76.569633 103.409227-46.292815 54.264248-59.968576 62.82074-2.267105 1.170119-11.116126 2.267105t-10.604199 0q3.437223-2.267105 46.877875-52.582203 11.993715-13.675761 48.85245-65.672904t44.830167-67.428082q9.72661-17.112984 29.106699-56.311955t20.550207-44.245108q-4.534209-0.585059-62.82074 18.868162-4.534209 1.170119-15.723468 4.314812t-19.745751 5.411798-9.72661 2.852164q-1.170119 1.170119-1.170119 5.996858t-0.585059 5.411798q-2.852164 5.704328-17.698043 8.556492-13.163834 4.022283-26.839594 0-10.31167-2.267105-16.015998-11.993715-2.267105-3.437223-2.852164-13.163834 3.437223-1.170119 13.96829-2.852164t16.820454-3.437223q33.128982-9.141551 59.968576-18.283102 57.116412-19.965148 58.28653-19.965148 5.704328-1.170119 24.57249-11.116126t25.157549-12.286245q5.119269-1.682045 12.286245-4.534209t8.263962-3.144694 3.437223 0.29253q1.170119 6.874447-0.585059 18.868162 0 1.170119-7.166976 15.430938t-15.138409 30.569347-9.72661 19.160691q-14.26082 28.594772-44.025711 74.814455l36.566205 16.015998q6.874447 3.437223 42.563062 18.283102t38.54078 16.015998q2.267105 0.585059 5.996858 14.55335t2.559634 17.405513zM329.790601 338.310527q1.682045 8.556492-2.267105 16.015998-6.874447 13.163834-28.594772 21.720326-17.112984 6.874447-34.2991 6.874447-14.845879-1.682045-28.009713-14.845879-7.971433-8.556492-10.31167-23.402371l0.585059-1.682045q1.682045 1.682045 11.116126 2.852164t15.138409 0 33.128982-9.141551q20.550207-6.874447 31.446936-7.971433 9.72661 0 11.993715 9.72661zM728.581631 412.027996l35.981146 129.663762-79.421797-23.98743zM95.547493 869.105556l396.523925-132.515926 0-589.593487-396.523925 133.100986 0 589.08156zM804.566205 687.956578l58.28653 17.698043-103.409227-375.388659-57.116412-17.698043-123.447507 306.278532 58.28653 17.698043 25.742608-62.82074 120.522211 37.151264zM517.155835 138.366519l327.413798 105.164405 0-217.130124zM694.86759 894.263105l90.245394 7.459506-30.861877 91.415512-22.817312-37.736323q-74.302528 47.389801-157.673475 61.723754-33.128982 6.874447-51.997143 6.874447l-47.974861 0q-45.122697 0-114.013427-22.305385t-104.871875-48.55992q-4.534209-4.022283-4.534209-9.141551 0-4.534209 2.852164-7.678903t7.459506-3.144694q2.267105 0 10.31167 4.314812t17.405513 9.434081 11.701186 6.289387q41.685474 21.135266 91.122982 35.103557t89.952864 13.96829q54.264248 0 95.437795-8.263962t89.733467-28.887302q8.556492-4.022283 17.405513-8.849022t19.453221-10.823597 16.308527-9.434081zM950.831024 277.756892l0 616.506213-442.231681-140.560491q-7.971433 3.437223-214.27796 72.83988t-210.255678 69.402657q-7.459506 0-10.31167-7.459506 0-0.585059-0.585059-1.682045l0-615.921154q1.682045-5.119269 2.267105-5.704328 2.852164-3.437223 11.408656-6.289387 60.553635-19.965148 85.126125-28.594772l0-219.397229 318.784174 113.135838q1.170119 0 91.708042-31.446936t180.563919-62.016283 92.293101-30.569347q11.408656 0 11.408656 11.993715l0 238.85045z" p-id="3508" fill="currentColor"></path></svg>