<svg t="1638803847197" class="icon" viewBox="0 0 1024 1024" xmlns="http://www.w3.org/2000/svg" p-id="3036" ><path d="M524.490551 1023.43355c-140.102939 0-271.81403-54.547017-370.878782-153.611769S0 639.045939 0 498.943c0-115.183242 36.995772-223.867918 106.944903-314.336142a523.825343 523.825343 0 0 1 119.276826-112.266563A533.035909 533.035909 0 0 1 376.55863 1.11192a25.584905 25.584905 0 0 1 30.036679 36.228225c-33.004527 64.320451-48.35547 125.621883-48.355471 193.012523 0 239.832899 195.110485 434.943383 434.943384 434.943383 67.39064 0 128.692072-15.350943 193.012523-48.35547a25.584905 25.584905 0 0 1 36.228225 30.036678 534.468663 534.468663 0 0 1-71.228375 150.336902 523.825343 523.825343 0 0 1-112.266563 119.276826 509.395457 509.395457 0 0 1-314.336142 106.944903zM336.18565 69.884144C163.538712 143.82452 51.16981 309.819383 51.16981 498.943 51.16981 759.90903 263.524521 972.26374 524.490551 972.26374c189.123617 0 355.11848-112.420072 429.058855-285.01584A451.98293 451.98293 0 0 1 793.132052 716.414691c-129.868977 0-251.908974-50.555772-343.707612-142.354411S307.018859 360.170475 307.018859 230.301498c0-55.109885 9.619924-108.019469 29.166791-160.417354z" p-id="3037" fill="currentColor"></path></svg>