<svg t="1638803897150" class="icon" viewBox="0 0 1024 1024" xmlns="http://www.w3.org/2000/svg" p-id="3820" width="1em" height="1em"><path d="M512.001559 773.066053c-69.732521 0-135.292072-27.155389-184.600241-76.463558-49.309168-49.309168-76.463758-114.86772-76.463758-184.60124 0-69.732521 27.155589-135.292072 76.463758-184.600241s114.86772-76.463758 184.600241-76.463758c69.733521 0 135.292072 27.155589 184.60124 76.463758 49.308169 49.309168 76.463558 114.86772 76.463558 184.600241 0 69.733521-27.155389 135.292072-76.463558 184.60124C647.292831 745.910465 581.73508 773.066053 512.001559 773.066053zM512.001559 308.950723c-111.962489 0-203.050532 91.088042-203.050532 203.050532s91.088042 203.050532 203.050532 203.050532 203.050532-91.088042 203.050532-203.050532S623.964048 308.950723 512.001559 308.950723zM163.915162 541.008388 105.900695 541.008388c-16.020138 0-29.007133-12.986995-29.007133-29.007333 0-16.020138 12.986995-29.007133 29.007133-29.007133l58.014466 0c16.020138 0 29.007133 12.986995 29.007133 29.007133C192.922295 528.021393 179.9353 541.008388 163.915162 541.008388zM918.101623 541.008388l-58.014466 0c-16.020338 0-29.007133-12.986995-29.007133-29.007333 0-16.020138 12.986995-29.007133 29.007133-29.007133l58.014466 0c16.020338 0 29.007133 12.986995 29.007133 29.007133C947.108756 528.021393 934.121761 541.008388 918.101623 541.008388zM512.001559 947.108253c-16.020338 0-29.007333-12.986995-29.007333-29.007133l0-58.014466c0-16.020338 12.986995-29.007133 29.007333-29.007133s29.007133 12.986995 29.007133 29.007133l0 58.014466C541.008892 934.121258 528.020898 947.108253 512.001559 947.108253zM512.001559 192.92279c-16.020338 0-29.007333-12.986995-29.007333-29.007133l0-58.014466c0-16.020338 12.986995-29.007133 29.007333-29.007133 16.020138 0 29.007133 12.986995 29.007133 29.007133l0 58.014466C541.008892 179.934796 528.020898 192.92279 512.001559 192.92279zM227.760275 828.165096c-7.423567 0-14.846934-2.83188-20.510694-8.49564-11.328319-11.328319-11.328319-29.694067 0-41.022387l41.022387-41.022387c11.328319-11.328319 29.695067-11.328319 41.022387 0 11.328319 11.328319 11.328319 29.694067 0 41.022387l-41.022387 41.022387C242.608208 825.333216 235.183841 828.165096 227.760275 828.165096zM761.050304 294.874067c-7.424366 0-14.846134-2.830881-20.511693-8.496439-11.32732-11.328319-11.32732-29.694067 0-41.022387l41.022387-41.022387c11.328319-11.32732 29.694067-11.328319 41.022387 0 11.32732 11.328319 11.32732 29.694067 0 41.022387l-41.022387 41.022387C775.898437 292.042187 768.473071 294.874067 761.050304 294.874067zM802.072691 828.165096c-7.423567 0-14.847134-2.83188-20.511693-8.49564l-41.022387-41.022387c-11.32732-11.328319-11.32732-29.694067 0-41.022387 11.328319-11.328319 29.694067-11.328319 41.022387 0l41.022387 41.022387c11.32732 11.328319 11.32732 29.694067 0 41.022387C816.919824 825.333216 809.496258 828.165096 802.072691 828.165096zM268.782661 294.874067c-7.423567 0-14.846934-2.83188-20.511693-8.49564l-41.022387-41.022387c-11.328319-11.328319-11.328319-29.695067 0-41.022387s29.694067-11.32732 41.022387 0l41.022387 41.022387c11.328319 11.328319 11.328319 29.695067 0 41.022387C283.629795 292.042187 276.206228 294.874067 268.782661 294.874067z" p-id="3821" fill="currentColor"></path></svg>